# xmcd
#
# Track frame offsets:
#	150
#	33736
#	62269
#	88031
#	112699
#	144237
#	174052
#	195239
#	224819
#	253603
#	284666
#	300983
#	315830
#
# Disc length: 4455 seconds
#
# Revision: 0
# Processed by: cddbd v1.4PL0 Copyright (c) Steve Scherf et al.
# Submitted via: EasyCDDAExtractor 4.6.0.1
#
DISCID=a511650d
DTITLE=CAFE PARADISO - ALL STAR CHILL OUT #2
DYEAR=1900
DGENRE=
TTITLE0=LTJ BUKEM - SUNRAIN
TTITLE1=NIGHTMARES ON WAX - MORSE
TTITLE2=AIM - COLD WATER MUSIC
TTITLE3=MOBY - BODY ROCK
TTITLE4=ALEX GOPHER - THE CHILD
TTITLE5=YOSHINORI SANAHARA - LOVE BEAT
TTITLE6=AMON TOBI - NOVA
TTITLE7=MR. SCRUFF - HONEYDEW
TTITLE8=DORIS DAYS - TO URLIKE M
TTITLE9=LES JUMEAUX - MIRACLE ROAD
TTITLE10=ETERNAL BASEMENT - OUT DREAMING
TTITLE11=GONZALES - WHY DON'T WE DISAPPEAR
TTITLE12=A GUY SEBBAG - MOMENTS
EXTD=
EXTT0=
EXTT1=
EXTT2=
EXTT3=
EXTT4=
EXTT5=
EXTT6=
EXTT7=
EXTT8=
EXTT9=
EXTT10=
EXTT11=
EXTT12=
PLAYORDER=
